/* XPM */
static char *_6f9a27091fe4cf183652160e7c8ab4f3hW7gEW8BVAbkIKm[] = {
/* columns rows colors chars-per-pixel */
"50 50 230 2 ",
"   c #4F0E00",
".  c #5B0606",
"X  c #550D03",
"o  c #5C0C03",
"O  c #5D0B0A",
"+  c #4B1805",
"@  c #541301",
"#  c #5C1302",
"$  c #531901",
"%  c #511208",
"&  c #5F120C",
"*  c #5B1B0A",
"=  c #5D0C12",
"-  c #5A1A13",
";  c #5C1E15",
":  c #650603",
">  c #6C0601",
",  c #650A02",
"<  c #6C0A01",
"1  c #65060C",
"2  c #6B050B",
"3  c #630B0B",
"4  c #6C0C08",
"5  c #710402",
"6  c #710B02",
"7  c #730309",
"8  c #710A0B",
"9  c #621204",
"0  c #681001",
"q  c #62120B",
"w  c #771A05",
"e  c #7C1D04",
"r  c #680A11",
"t  c #611112",
"y  c #631D15",
"u  c #6A1C16",
"i  c #631D19",
"p  c #6B1C1B",
"a  c #57230C",
"s  c #5B2414",
"d  c #5C221A",
"f  c #57281A",
"g  c #6B2B07",
"h  c #742104",
"j  c #7D2905",
"k  c #7A2609",
"l  c #63211A",
"z  c #63271A",
"x  c #6A3819",
"c  c #6D1B22",
"v  c #5A2322",
"b  c #5C3324",
"n  c #5B352A",
"m  c #692625",
"M  c #642C23",
"N  c #692C24",
"B  c #642C2B",
"V  c #6A2A2A",
"C  c #623222",
"Z  c #61342D",
"A  c #653B2D",
"S  c #643C32",
"D  c #693836",
"F  c #6E343A",
"G  c #6C3F3C",
"H  c #713730",
"J  c #7D5907",
"K  c #7E5A15",
"L  c #7E511C",
"P  c #7C5B1C",
"I  c #69442F",
"U  c #7D4420",
"Y  c #7A5D26",
"T  c #755B2F",
"R  c #7C5D2C",
"E  c #6A4435",
"W  c #65453C",
"Q  c #6C443D",
"!  c #654B3E",
"~  c #6D4B3E",
"^  c #70443B",
"/  c #775637",
"(  c #7D5C33",
")  c #7C5C3B",
"_  c #766134",
"`  c #786036",
"'  c #76613C",
"]  c #6F3440",
"[  c #6E3F45",
"{  c #5F554E",
"}  c #5E5650",
"|  c #644443",
" . c #6C4242",
".. c #644B43",
"X. c #6E4C42",
"o. c #64424A",
"O. c #6D4D4D",
"+. c #724942",
"@. c #724D4C",
"#. c #685149",
"$. c #69534D",
"%. c #6D5E4A",
"&. c #7E5D45",
"*. c #745749",
"=. c #7B5D4C",
"-. c #654F55",
";. c #6B4E52",
":. c #784E55",
">. c #695354",
",. c #695854",
"<. c #6D5B5E",
"1. c #775650",
"2. c #7A5454",
"3. c #735B54",
"4. c #795E54",
"5. c #79535A",
"6. c #735C5C",
"7. c #7B5D5D",
"8. c #5F6459",
"9. c #6A664B",
"0. c #6D634C",
"q. c #716446",
"w. c #72634B",
"e. c #79614E",
"r. c #656255",
"t. c #6C6453",
"y. c #656A57",
"u. c #686950",
"i. c #65655C",
"p. c #6B645C",
"a. c #646A5C",
"s. c #69695B",
"d. c #736354",
"f. c #796253",
"g. c #706852",
"h. c #73625D",
"j. c #7D665E",
"k. c #6C5E64",
"l. c #645C6D",
"z. c #695D6C",
"x. c #745E64",
"c. c #7B5B61",
"v. c #715769",
"b. c #695E78",
"n. c #5E6662",
"m. c #5B6A6B",
"M. c #5E6673",
"N. c #5F667A",
"B. c #656664",
"V. c #6B6364",
"C. c #626963",
"Z. c #696A62",
"A. c #656469",
"S. c #6B626A",
"D. c #64696A",
"F. c #696968",
"G. c #726263",
"H. c #7C6363",
"J. c #766967",
"K. c #726369",
"L. c #626474",
"P. c #6B6274",
"I. c #65637B",
"U. c #6A627A",
"Y. c #786472",
"T. c #811B04",
"R. c #822606",
"E. c #832903",
"W. c #84250A",
"Q. c #8C2E08",
"!. c #893107",
"~. c #86340A",
"^. c #893308",
"/. c #873909",
"(. c #883809",
"). c #923B00",
"_. c #803410",
"`. c #9E3D15",
"'. c #864A05",
"]. c #8D4D01",
"[. c #964307",
"{. c #9A4203",
"}. c #954C01",
"|. c #9B4E02",
" X c #964309",
".X c #994109",
"XX c #964E0B",
"oX c #9A4C0A",
"OX c #845603",
"+X c #845707",
"@X c #8C5404",
"#X c #8C5409",
"$X c #835909",
"%X c #945202",
"&X c #9A5000",
"*X c #91510B",
"=X c #9D500B",
"-X c #8A4A13",
";X c #8F4C15",
":X c #9D4413",
">X c #934D14",
",X c #9B4B15",
"<X c #875414",
"1X c #8B5314",
"2X c #835914",
"3X c #8C531E",
"4X c #84581E",
"5X c #925016",
"6X c #955116",
"7X c #A24B03",
"8X c #A24909",
"9X c #A54808",
"0X c #A54614",
"qX c #A84515",
"wX c #A4461A",
"eX c #894B20",
"rX c #8C5424",
"tX c #835925",
"yX c #89562B",
"uX c #845828",
"iX c #895231",
"pX c #835937",
"aX c #8B5830",
"sX c #835A47",
"dX c #845944",
"fX c #815A56",
"gX c #825C5B",
"hX c #865B61",
"jX c #885B62",
"kX c #636081",
/* pixels */
"&X&X|.;Xf.J.s , < wX7X}.%X&X&X&X&X&X&X&X&X7X|.].<Xd.H.X , 5 qX&X|.&X&X&X&X&X&X&X|.9X7X|.}.aX3.5.= > ",
"&X&X%X#Xe.H.s , 0 wX7X}.&X&X|.|.&X&X&X&X&X|.|.@X<Xd.x.% o < 0X&X|.|.&X&X&X&X|.%X%XoX|.&X%XuX%.7.= > ",
"|.|.|.<Xq.j.s @ # >X|.@X&X|.|.|.|.|.|.}.&X&X@XOX2Xw.h.$   0 0X|.|.|.|.|.|.|.|.}.@XoXoX@X#XtX*.3.% X ",
">X5X1XP w.J.b + a eX1XK 1X5X5X5X5X5X6X>X5X5X2XK P t.h.a + * 3X5X5X5X5X1X>X5X5X1XK 1X3X2XK ( d.3.- * ",
"' ' ' T V.P.O.W ~ dXpX' ' q.' ' ) q.' ' ' ) ) ' ' V.K.....Q sX' ' ' q.) ' ' ' ' ' dXdX` ' =.k.V.Q ^ ",
"a.a.y.9.L.kXk.h.G.7.4.s.y.a.a.a.a.y.a.a.a.h.p.t.w.U.kXp.Z.G.h.a.a.a.y.a.a.a.a.a.y.c.7.u.r.V.L.A.h.h.",
"V.V.i.9.N.I.K.p.V.H.6.D.V.V.V.A.A.V.V.V.V.x.V.y.d.P.U.G.C.V.V.V.V.V.Z.A.A.A.V.Z.a.x.x.p.p.k.U.A.d.h.",
" .| G E o.[  .W Q G E ..|  .,.k.h.| | [ G [  .W E o.o.Q W W E Q [ [ [ G.Z.$. .o.W  . .Q E W o.| E Q ",
"q O 3 9 & q q q q 3 q & - q  .x.1.% & 3 , 3 q q 9 q q q & q # 9 3 r t 7.p.I q t & 3 9 q # q q q 3 q ",
"> : 5 > > > > > > > > > : , +.z.5.. 3 > > > > > > > > > > > , , 2 2 1 c.B.A 2 2 < > > 6 > > > > > 5 ",
"0 , 7 6 < 6 6 6 < 6 < < 3 0  .S.5.O 1 5 > 6 6 6 < 6 < 6 6 6 < 0 8 < , c.A.D 2 2 4 < 6 6 6 < 6 < 6 6 ",
"!.E.Q.!.!.!.!.^.!.!.!.!.~.~./ A.5.: > w E.!.^.^.^.!.!.!.!.^.^.^.Q.(._.4.B.S 2 , j Q.Q.!.!.!.!.^.!.Q.",
"7X}.7X|.|.oX|.oX|.oX|.8X8XoX) a.1.< > T.{.|.|.|.8X|.oX|.|.|.oX9X8X=X>Xe.Z.D < < ^.,XoX|.|.|.|.oX|.7X",
"7X%X7X&X|.&X|.&X|.&X&X|.|.|._ C.5.8 5 T.}.&X|.|.&X|.&X&X|.|.|.9X9X&X*Xw.V.F 5 < (.oXoX|.|.&X|.|.|.|.",
"|.}.|.|.&X&X&X&X&X&X&X|.7X}.( D.:.8 5 T.}.%X&X&X&X&X&X&X&X&X7X8X|.%X*Xf.z.] 7 < (.XX8X&X|.&X|.|.|.|.",
"}.%X|.|.&X&X&X&X&X&X&X&X|.}._ Z.:.4 > e }.%X&X&X&X&X}.&X&X|.oX8X&X%X@X=.k.F 2 , /.oX=X}.|.%X&X|.|.|.",
"@XOX%X|.|.|.|.|.|.|.|.|.}.@X_ p.1., , h @X%X|.}.|.|.|.}.|.|.|.XX%XOX@Xq.h.H , , (.oXoX|.|.}.|.|.|.%X",
"+XJ %XXXXXoXoXoXoXoXXXXX<X@X_ y.*.# $ g '.*XXXoXoXoX,XoXoXoX>X1X<X$XK q.y.A X # /.,X,X,XoXXXoXoXXX#X",
"( T iX( ( ( ( ( ( ( ( ( ( tXw.B.<.A S I / pX( ( ( ( ( ( ( ( ( ( ) R ( p.B.O.H S / ) ( ( R ( ( ( ) pX",
"G.<.7.y.y.y.y.y.y.y.y.y.p.&.k.I.S.3.p.h.4.t.y.y.y.y.y.y.y.y.t.d.6.d.4.S.M.k.gXV.y.a.y.y.y.y.y.y.p.3.",
"F.B.x.B.B.m.A.A.A.V.F.B.F.f.V.N.A.r.m.V.x.V.A.B.A.B.B.B.A.A.a.p.S.V.x.A.m.p.c.A.A.B.B.Z.i.B.C.B.V.G.",
"$...@.O.V.A.>.O.O.O.O.>.$.~ @.-.$.! { $.@.;.;.;.$.A.V.>.O.O.#.#.-.$.@.;.} #.+.>.O.O.@.@.O.,.A.Z.$.@.",
"i ; u ; S.B.n u p i y l i y i i y y s i y i i p d V.S.m y i s i i i i ; d l y y u i p u u Z Z.t.l i ",
"< > > o K.A.v 2 7 : , , , : > < , < > , > : : > X V.S.= : , , < : < > > , < > < < : : > > v Z.p.O , ",
"> > < 3 V.L.v 2 7 6 < , < 5 < > < 5 < > > > , > # S.z.= 2 : 4 > < > 6 > > > < < < , , 5 < M B.G.3 > ",
"R.R.W.k p.D.v > 7 W.R.j R.R.R.R.R.R.R.R.R.j R.R.g B.S.& 2 < W.R.R.R.R.R.R.R.W.R.j j j R.W.H i.G.O > ",
"oX|.oX>Xg.s.s : 6 `.9X|.|.oXoX8X|.oX|.oXoX8X8X.X-Xy.V.q < 6 `.|.8XoXoX|.|.oXoX|.}.oXoX|.8XiXt.3.3 > ",
"|.&X|.6X0.h.d > 5 qX9X}.&X&X|.&X|.|.|.|.|.|.|.}.1Xt.p.# < 5 qX|.&X|.|.&X|.|.|.&X&X|.|.|.|.aXp.6.c > ",
"&X&X|.>Xd.J.l < 6 wX9X|.&X|.&X&X|.|.&X|.&X7X|.}.1Xt.G.X < 5 qX|.&X|.&X|.&X|.&X&X&X7X7X&X}.aXh.G.F > ",
"&X&X}.1Xf.J.; , , wX7X&X&X&X&X&X&X&X&X&X&X7X|.].<Xh.H.@ , < 0X&X&X&X&X&X&X&X&X&X&X7X|.&XXXaXh.K.F > ",
"|.|.&X#Xq.j.a # 9 :X&X].|.|.|.|.|.|.|.|.|.|.%X@X<Xd.h.@ X , 0X|.|.|.|.|.|.|.|.|.&X7X|.%X#XuXj.p.V o ",
"oXoX*X2Xw.j.f   $ >X*X+X*XoXoXoXoXoX|.oXoX*X+X$XK 0.h.+   # ,X|.oXoXoXoX|.oXoXXX#XoX*X+X$XR g.s.n X ",
"uXuXtXY p.K.S b C iXyXY tXuXuXuXuXuXuXuXuXrXR Y Y h.G.b b C iXuXuXuXuXuXuXuXuXtXtXyXyXY Y &.G.B.! C ",
"u.u.9.q.L.U.6.3.3.gXsXt.u.u.u.u.u.u.u.u.u.4.f.q.q.P.U.<.G.3.f.u.u.u.u.u.u.u.u.9.e.fX4.w.w.H.P.A.<.4.",
"C.C.y.u.N.kXS.B.F.x.6.C.m.C.C.m.C.C.m.C.C.k.V.y.t.I.I.V.C.V.V.C.m.B.n.C.m.C.C.C.8.K.S.i.p.Y.b.l.G.h.",
"6.<.,.%.l.l.6.,.6.3.3.p.<.6.V.V.V.<.<.6.<.6.k.r.%.z.z.3.r.<.3.<.6.6.<.S.V.V.<.k.8.k.k.r.,.c.v.k.3.3.",
"V M m z B B N M M N M B B N $.k.6.v B V m V N M z B B M M N z C V V B H.p...B B b B V C N V B V N N ",
", . > , , , , < , : , , O ,  .k.1.  O , : < , , , , , , , , , o 1 2 3 c.h.A O 3 , : , , , , : , : > ",
"> . 2 > 2 < > > > > 4 > , , Q P.5.. 1 5 > > < < 6 > 5 < < > < , 2 7 1 c.V.A . 2 2 > < 6 > > > > > > ",
"e w T.e e e e e e e e e e h ~ S.5.: 2 6 w w e e e e e e e e e e w T.w h.k.X.. , w e e e e e e e e T.",
").].{.{. X.X X X[. X X X.X.X' C.2.< 2 T.).[..X X.X X X X[.[.{.{.[.{.-Xd.V.5.3 : E.:X X X X[.[.[. X X",
"7X}.7X|.&X&X|.&X&X|.&X7XoX|.` i.2.6 5 T.}.|.|.&X&X&X|.&X|.|.7X7X7X7X*Xf.A.hXO o ~.oXoX|.|.|.&X&X|.7X",
"7X|.7X|.&X&X&X|.|.&X|.|.|.|._ D.5.8 5 T.{.&X&X|.&X|.&X|.|.|.7X9X|.7X#X%.z.hX. , /.oXoX|.&X|.|.&X|.|.",
"}.%X|.&X&X&X&X&X&X&X&X&X7X}.` Z.:.8 > e }.%X&X&X&X&X&X&X&X&X7X9X&X&X#Xw.S.jXX , /.XX=X|.|.&X&X&X&X|.",
"}.@X|.|.|.}.&X|.|.|.&X&X}.}._ s.2.< > e ].%X}.|.&X|.|.|.|.|.|.oX%X%X@Xq.V.jXX X /.oXoX}.&X|.|.|.|.%X",
"@XJ %X|.|.}.|.oX|.oX|.|.#X]._ s.*.9 X g @X*X|.|.|.|.|.|.|.|.|.#X@X@X$Xq.k.gX% X ~.,X,X}.|.|.|.|.XX%X",
"P K 3X3X3X3X3XrX3X3X3X3XtX<X' i.3.s d x L 3X3X3X3X3XrX3X3X3X3X4XP 2X4Xu.Z.4.f f U rXrX3X3X3XrX3X3X3X",
"=.%.&.q.q.q.q.q.q.q.q.q.w.pXd.L.k.X.#.*.*.q.q.q.w.q.q.q.q.q.q.=.d.sXsXZ.A.J.X.$.%.q.q.q.q.q.q.q.w.&.",
"V.B.x.B.i.a.n.C.a.a.C.C.C.e.V.N.A.,.C.V.6.Z.i.n.a.C.a.a.n.C.p.V.S.G.h.A.D.p.d.J.Z.8.C.C.a.a.a.C.C.6.",
"A.n.k.A.A.A.A.A.A.A.A.A.A.d.S.M.D.r.m.D.z.S.A.A.F.A.A.A.A.A.C.C.L.S.G.A.A.p.h.P.V.V.p.G.V.Z.A.A.S.G."
};
