/* XPM */
static char *_deb78e1ba2345be8fa7c636eae35360ALHYEYtr1Hi6ZRdH[] = {
/* columns rows colors chars-per-pixel */
"50 50 236 2 ",
"   c #010402",
".  c #0B0203",
"X  c #010C01",
"o  c #080900",
"O  c #00020B",
"+  c #02090B",
"@  c #13090D",
"#  c #001401",
"$  c #001B00",
"%  c #00120B",
"&  c #001E0E",
"*  c #000113",
"=  c #031416",
"-  c #012201",
";  c #082700",
":  c #162F00",
">  c #003D00",
",  c #023D0C",
"<  c #133C02",
"1  c #002212",
"2  c #0C3C1A",
"3  c #053C11",
"4  c #113C11",
"5  c #0C3E25",
"6  c #103D20",
"7  c #014401",
"8  c #0B4401",
"9  c #034C02",
"0  c #0B4D01",
"q  c #01440B",
"w  c #034C0B",
"e  c #094C0B",
"r  c #0A470C",
"t  c #104E00",
"y  c #104E0C",
"u  c #184B00",
"i  c #035301",
"p  c #0C5300",
"a  c #055A00",
"s  c #0C5A00",
"d  c #03520A",
"f  c #0C530B",
"g  c #0C5A0A",
"h  c #125401",
"j  c #145B00",
"k  c #1C5D01",
"l  c #12560C",
"z  c #125A0A",
"x  c #1C5906",
"c  c #004413",
"v  c #034C13",
"b  c #0A4E12",
"n  c #054B1B",
"m  c #0B4C1B",
"M  c #09431C",
"N  c #1F481E",
"B  c #025113",
"V  c #0B5213",
"C  c #0A5815",
"Z  c #0C521C",
"A  c #125415",
"S  c #175B15",
"D  c #2A4F02",
"F  c #245600",
"G  c #224910",
"H  c #20501C",
"J  c #30581A",
"K  c #0E6000",
"L  c #076200",
"P  c #146101",
"I  c #1B6401",
"U  c #1F6900",
"Y  c #166605",
"T  c #1B6315",
"R  c #246D00",
"E  c #206608",
"W  c #247100",
"Q  c #2C7302",
"!  c #216D10",
"~  c #0F4624",
"^  c #124822",
"/  c #0D5225",
"(  c #135524",
")  c #1A5332",
"_  c #689D11",
"`  c #6EBD1C",
"'  c #6FBD12",
"]  c #7DBA18",
"[  c #79BF0F",
"{  c #67B83C",
"}  c #72BD32",
"|  c #76BC3F",
" . c #71B82D",
".. c #6CC408",
"X. c #73C301",
"o. c #76CA01",
"O. c #7CCB02",
"+. c #7ECD0B",
"@. c #77C709",
"#. c #7DD202",
"$. c #7CD20D",
"%. c #68C216",
"&. c #74C61A",
"*. c #7CCB1C",
"=. c #79C815",
"-. c #7CD213",
";. c #7DD618",
":. c #6CC12A",
">. c #75C521",
",. c #7BC423",
"<. c #7FCD25",
"1. c #7DCC29",
"2. c #78C72C",
"3. c #7AD628",
"4. c #6DC630",
"5. c #7CC533",
"6. c #7CCC34",
"7. c #7DCB3C",
"8. c #77C537",
"9. c #7BD83C",
"0. c #7BD438",
"q. c #6CBC47",
"w. c #76BA4B",
"e. c #6EB85A",
"r. c #76C642",
"t. c #7ECC45",
"y. c #75C24B",
"u. c #7DC54A",
"i. c #7CC745",
"p. c #79D647",
"a. c #77CA58",
"s. c #77D257",
"d. c #6DC151",
"f. c #7BCA64",
"g. c #84B71C",
"h. c #89BC25",
"j. c #89BB34",
"k. c #82CD03",
"l. c #84CD0C",
"z. c #83D402",
"x. c #85DA01",
"c. c #8ADB02",
"v. c #85D50B",
"b. c #89D50B",
"n. c #85D90C",
"m. c #8CDB0A",
"M. c #8AD605",
"N. c #91D80E",
"B. c #84CE12",
"V. c #84CC1B",
"C. c #8CCA19",
"Z. c #84D513",
"A. c #8AD512",
"S. c #86DA14",
"D. c #8BDA13",
"F. c #85D31A",
"G. c #8AD51B",
"H. c #85D91B",
"J. c #8BDC1C",
"K. c #92D919",
"L. c #93CF1F",
"P. c #8DE202",
"I. c #89E20A",
"U. c #93E40D",
"Y. c #97EA04",
"T. c #8DE21A",
"R. c #94E515",
"E. c #84CD23",
"W. c #82CC2B",
"Q. c #87C626",
"!. c #90CC28",
"~. c #84D323",
"^. c #8CD423",
"/. c #8CDD25",
"(. c #84D62B",
"). c #8AD42D",
"_. c #8CDB2B",
"`. c #84DA28",
"'. c #91DC23",
"]. c #95D927",
"[. c #83CC34",
"{. c #8BCD35",
"}. c #83CC3C",
"|. c #86C537",
" X c #93CC34",
".X c #94CD3A",
"XX c #95C53B",
"oX c #84D233",
"OX c #89D432",
"+X c #84D23B",
"@X c #8CD53C",
"#X c #89D936",
"$X c #93D539",
"%X c #A1DB38",
"&X c #8EE123",
"*X c #99E523",
"=X c #95E327",
"-X c #9BF422",
";X c #95E536",
":X c #8FE230",
">X c #A4E52B",
",X c #A2ED31",
"<X c #88B656",
"1X c #93BB55",
"2X c #8AB14E",
"3X c #8EB56A",
"4X c #83C743",
"5X c #84CD43",
"6X c #85CF4E",
"7X c #88C947",
"8X c #93C245",
"9X c #87D345",
"0X c #84D24B",
"qX c #8BDB49",
"wX c #8AD648",
"eX c #94DD41",
"rX c #92D94C",
"tX c #84CD51",
"yX c #89CD54",
"uX c #80CA5C",
"iX c #8BC354",
"pX c #93C752",
"aX c #9DCC54",
"sX c #89DD51",
"dX c #88D457",
"fX c #93DD5E",
"gX c #90E24A",
"hX c #97EA4A",
"jX c #96E352",
"kX c #8FE54F",
"lX c #88D767",
"zX c #99DA68",
"xX c #90D070",
"cX c #A4CC6A",
"vX c #A2EF6F",
"bX c #A4CE52",
/* pixels */
". @ .   ; 3XiXwX@X+Xr.dXf.e.T 9 e A e.lXtXy.lXa.lXy.6.;.J.z.M. X$ O     * O o X : 2XcXu.7.9.p.s.s.s.",
". .     X J 8 0 i a a L g Y 7 9 > 7 h 8 p 9 s Y p s P &.J.v.Z.eX#   O + * * X X X D F e s L L a a d ",
"o o + % o H > h p s i s 9 9 p h e y h p j i 9 7 > I 9 OX)._.).XX# X     * * + X - G < 7 s i 9 a a a ",
"X     % % 2 , S 7 9 9 f d p p 9 h > > p > 9 Y s s W i 7.6.[.5.7X- $ X X O = X # # 4 3 r f 9 9 Z w 9 ",
"# # $ & 1 5 3 , V w w e 7 7 j 0 h h > T 9 7 i p 7 7 R i.zXdXiXzX$ - $ - X % % - ; ^ ~ ^ V 7 c v w 9 ",
"< < 4 2 ~ ) ( b q b c b t E w.yXw.uX0 9 0 p j y.vXt.u.j 7 9 7 8 pXaXpX<XN 2 2 ~ , ~ c c e e b , w d ",
"u u 8 , , , q q d f w 7 > 0 | wX7.fX9 9 l 0 9 tX8.} fXp 0 x F 0 Q.Q. X5Xp 7 w e V V , q p l A r 0 9 ",
"h p 0 A V w w i 9 d V f p k i.5X9XtX7 z f 9 j 0XjX` }.k j > w h ^.M.F.).p 9 i 9 i 9 7 w p 7 0 e 0 p ",
"0 i w w w d i i s i 9 7 0 p yX4Xt.y.p g 9 7 U 6.<._.` Q a j j i v.c.v.(.a a a i i i d 9 i 0 0 0 0 p ",
"e e e w 9 i i i 9 7 e V l > Q p j P 7 S e 7 9 +X<.:X_.*.>.[.@X~.n.x.v.`.a a i a i i d i p i 0 0 0 0 ",
"n n v v v d i i g d q c 7 > p > 9 9 7 7 7 j p rX<.-.-.F.H.F.-.$.n.n.H.oXp s 9 d d d d w i 9 9 0 e 9 ",
"n n n n w w i i 9 w n / ( S j s s a j h h I 0 } ;XOX~./.&XH.Z.H.A.D.~.+X9 9 9 9 d d v w i i w v w q ",
"n v n v w w i i 9 B n n q 7 w i 7 i p P 7 > R yX4X|.6.1.1.1.oX(.F.F.~.+Xp 0 w 9 w w v v i i d v w w ",
"e e b w w 9 9 i w v c c d ! 4.qXsXsX:.0.qXjX| j h j j p s p s s ~.F.~.+X0 0 8 0 9 w v B i i B B d d ",
"p 9 0 i 9 i i p d w B v i a 4.3.%.3.H.$...OX6X0 7 7 8 0 0 0 f p E.A.F.OXp 0 0 0 0 w w w i d B B d a ",
"p 0 0 9 i 9 i i i i i a a i p.0.;X..$.-XS.F.5.k F t 0 h h 0 0 h W.F.E.{.0 t 0 0 0 9 w d i i d i i a ",
"t 0 b c w 9 0 i i a i a a Y y.a.sX2.:X..v.'.E.j h h h h h p s p |.OX|.7.x 0 9 f f 7 e g 7 j s i i p ",
"0 e v n b e i a a { 0.gX3.:.Y 9 s Y <.J.D.b.*XV.). X).).).oX+X9XE h 7 j 9 x 0 7 V w 7 9 a { 0X0XwX6X",
"r w e e w 9 d d s lXt.3.%.kX9 s 7 i *.J.m.O.b.K.C.V.V.F.F.E.W.5X7 8 t l , b m Z q w 9 s P 0XgX2.1.,.",
"v e w 9 d w B d > f.r.0.3.jX7 p j P F.v.c.P.O.k.b.A.A.A.Z.F.F.+Xp 8 8 7 7 q q , w C 9 9 a 7.+X>.#XOX",
"n b w w w v B B T f.lXdXt. .I p 9 j +.o.#.Y.M.U.m.m.M.c.x.n.n.~.s i p s s h S f 7 9 9 a I r.qXrX6.8.",
"n v w w w v v d q s 9 9 h I 5.W.@X<.,XU.c.c.o.M.v.v.M.x.x.x.x.Z.`.0.qX{ P > 9 7 9 d p 9 7 p 7 7 j j ",
"d 9 9 w v v 9 9 j i 0 0 8 0 $X^.:XX.o.O.#.P.M.R.A.F.n.M.x.P.c.x.S.-.`.7.P s Y f e q Z q b V e S 8 0 ",
"s s i i 9 9 i i s 7 h 8 8 t !.l.A.S.I.P.P.c.Z.*.W.~.F.v.x.x.#.x.I.#.`.3.i i p 7 f 9 A > e q q 0 h k ",
"p s s i j s i s i s 0 0 h F =.N.m.k.c.o.c.O._.5.wX}.,.].v.X.R.z.x.o.T.&.U 9 j t h p 9 p j p h a p h ",
"}.[.}.5.9X}.6._./._.}.4XyX} ].b.c.c.c.z.R.F.,.Q 9 0 R E.J.z.U.#.P.z.T.;X,.[.rX4X4X5X}.@X9XoX+X+XoX{.",
"{.Q.].V.G.F.Z.S.z.O.$.F.=X^.K.O.v.K.U.o.U.F.2.p h 7 p ,.G.v.D.U.c.k.O.l.E. XOX*.E.'.+.v.c.z.#.#.v.v.",
"2XQ.%XL.C.K.b.v.P.c.c.#.b.A.V.).V.D.D.X.S./.+XI E h I oX].G.k.b.N.N.L.!. X.XXX X].>Xk.x.P.P.P.x.c.c.",
"cX1XbXh.g.>XK.b.M.M.P.c.P.=XQ.eX{.] =Xv.T.Z.' P 9 i P =.V.J.l.'.Q.XX8X1X1X1X1XaX_ %Xl.N.c.c.m.x.c.c.",
"  X ; ; < g.C.C.N.z.c.z.#.X.j h j k V.Z.D.A.=X*.#X_.*.&Xl.A.l.!.- ; $ # # # X # u j.C.].k.z.m.m.n.n.",
"o X X # $ aX!.L.C.k.c.c.T.).h 7 8 0 eX^.o.o.n.T.o.$.#.v.M.D.B..X$ # X   X # # # $ j.!.>Xk.z.m.z.b.D.",
"    O + X cXXXh.^.B.J.*.E.7.p h u > rX[.`.=X-.-.`.J.J.v.b.b.O.|.$   + * * O X X $ 1X X!.+.J.T.$.~.(.",
". @     ; 3XpX.X@X#X2.0Xs.q.! 7 y x w.yX}.8.sXr.sX8.3.Z.D.M.v..X#     O * O o X : 2XcX}.1.0.9.9.p.p.",
". .     X J 8 0 i a i s s Y 9 9 > > h 9 s i s P p s j &.J.v.Z..X$ O + + * * X X X D F 0 s L a a a i ",
"o o + = # N > h p s i s 9 0 9 h e y h p j 9 9 7 7 I 9 oX_./.).4X# X     * * + X $ G 8 7 s i i a i a ",
"X   o % # 6 , S 7 9 9 f f p p 9 h > > h > 9 Y s s W i 7.5.[.|.7X- $ X X * = X # $ 4 4 r p 9 9 C 9 9 ",
"# # $ & & 5 3 , V w q b 7 q j 0 h h > S 7 9 p i 7 7 R u.zXdXiXzX$ $ # - X % # - - ^ ~ ~ V 7 c v w 9 ",
"< 8 4 2 5 ) ( v w v e V 0 U w.yXy.a.p 9 0 p j y.vXt.u.j 7 0 7 t pXaXpX<XH 2 2 M , ^ c c e w m , e f ",
"u u 8 , 3 , w 7 w w w 7 > 0 | rXi.fX9 0 A 9 i tX8.} fXp p F T 0 Q.Q.$X4Xt > w b V V , 7 h h A r 0 9 ",
"t t 0 A A w w d 9 d f l 0 j i.5X9X6X7 z 0 9 j 0XjX` }.P h > 7 h ^.v.A.(.s 9 9 9 i w q e p 7 0 e 0 p ",
"p 0 9 w w i i i s i 9 7 p 0 yXi.t.y.s f 0 9 U 8.W._.%.Q i p j i A.x.Z.`.a a a i i i d i i 0 0 0 0 9 ",
"e w w w 9 i i i 7 9 e V f > Q h s j 7 S e 7 9 +X~.&X_.*.>.oX@X`.n.x.n.`.a a i i i i d 9 i 0 0 0 p 0 ",
"v n n v v d i i g d q c q > p > 9 9 9 7 7 j p rX1.=.-.G.J.F.-.-.v.n.F.oXp i i i d d w d i i 9 e w w ",
"n n n n v d i i 9 w n / Z S j j s p j s h I 0 } eX_.G././.H.Z.H.Z.S.F.+Xp 9 9 w d d v d 9 i 9 e q w ",
"n n n v b w i i w v / n q 7 9 i 9 i a j 7 > Q yX4X}.5.W.1.<.oX(.F.H.~.+Xp 0 w 9 w v B v i i w v w w ",
"e w b w 9 d 9 i 9 v c v f ! { sXsXkX4.0.gXrX| j p j j p p p s s ~.F.~.+X0 0 0 9 w w v v i d B B d d ",
"0 i 9 9 9 i i i d d v w i a 4.3.%.3.;.$...OX7Xt 7 8 0 0 0 0 p p E.A.F.{.t t 0 0 0 9 w w i d B B a a ",
"p 0 p 0 9 9 i i i 9 d a i a p.3.;X..#.-XS.F.} k k 0 0 t h 0 e h [.F.~.}.0 h 0 0 0 9 9 d i a d i i i ",
"0 0 0 0 9 w 9 9 i a i i a a 0Xt.0.&.&Xo.v.A.V.F p p p i s p 0 p 7.5X5X4Xp 0 i f f 7 w f > Y i s 9 i ",
"8 0 0 e e w 9 i i a.d.lXa.{ P I a W F.v.M.b.>X,.5X6X6X0X6X6X6X6Xk p 0 I 7 h p 9 C w 9 i s q.y.s.s.dX"
};
