/* XPM */
static char *_1425_410dda3ab97fb35a1a5012ef498f555290f0351c1eb9df353e71fc214233c698[] = {
/* columns rows colors chars-per-pixel */
"50 50 236 2 ",
"   c #010402",
".  c #0B0203",
"X  c #010C01",
"o  c #080900",
"O  c #00020B",
"+  c #03090B",
"@  c #13090D",
"#  c #001401",
"$  c #001B00",
"%  c #00120B",
"&  c #001D0E",
"*  c #000113",
"=  c #031316",
"-  c #012201",
";  c #082700",
":  c #162F00",
">  c #003D00",
",  c #023D0C",
"<  c #133C02",
"1  c #002212",
"2  c #0C3C1A",
"3  c #053C11",
"4  c #113C11",
"5  c #0C3E25",
"6  c #103D20",
"7  c #014401",
"8  c #0B4401",
"9  c #034C02",
"0  c #0B4D01",
"q  c #01440B",
"w  c #034C0B",
"e  c #094C0B",
"r  c #0A470C",
"t  c #104E00",
"y  c #104E0C",
"u  c #184B00",
"i  c #035301",
"p  c #0C5300",
"a  c #055A00",
"s  c #0C5A00",
"d  c #03520A",
"f  c #0C530B",
"g  c #0C5A0A",
"h  c #125401",
"j  c #145B00",
"k  c #1C5D01",
"l  c #12560C",
"z  c #125A0A",
"x  c #1C5906",
"c  c #004413",
"v  c #034C13",
"b  c #0A4E12",
"n  c #054B1B",
"m  c #0B4C1B",
"M  c #09431C",
"N  c #1F481E",
"B  c #025113",
"V  c #0B5213",
"C  c #0A5815",
"Z  c #0C521C",
"A  c #125415",
"S  c #175B15",
"D  c #264C09",
"F  c #245600",
"G  c #20501C",
"H  c #30581A",
"J  c #0E6000",
"K  c #076200",
"L  c #146101",
"P  c #1B6401",
"I  c #1F6900",
"U  c #166605",
"Y  c #1B6315",
"T  c #246D00",
"R  c #206608",
"E  c #247100",
"W  c #2C7302",
"Q  c #216D10",
"!  c #0F4624",
"~  c #124822",
"^  c #0D5225",
"/  c #135524",
"(  c #1A5332",
")  c #689D11",
"_  c #6EBD1C",
"`  c #6FBD12",
"'  c #7DBA18",
"]  c #79BF0F",
"[  c #67B83C",
"{  c #72BD32",
"}  c #76BC3F",
"|  c #71B82D",
" . c #6CC408",
".. c #73C301",
"X. c #76CA01",
"o. c #7CCB02",
"O. c #7ECD0B",
"+. c #77C709",
"@. c #7DD202",
"#. c #7CD20D",
"$. c #68C216",
"%. c #74C61A",
"&. c #7CCB1C",
"*. c #79C815",
"=. c #7CD113",
"-. c #7DD618",
";. c #6CC12A",
":. c #75C420",
">. c #7BC423",
",. c #7FCD25",
"<. c #7DCC29",
"1. c #78C72C",
"2. c #7AD628",
"3. c #6DC630",
"4. c #7CC533",
"5. c #7CCC34",
"6. c #7DCB3C",
"7. c #77C537",
"8. c #7BD83C",
"9. c #7BD438",
"0. c #6CBC47",
"q. c #76BA4B",
"w. c #6EB85A",
"e. c #76C643",
"r. c #7ECC45",
"t. c #75C24B",
"y. c #7DC54A",
"u. c #7CC745",
"i. c #79D647",
"p. c #77CA58",
"a. c #77D257",
"s. c #6DC151",
"d. c #7BCA64",
"f. c #84B71C",
"g. c #89BC25",
"h. c #89BB34",
"j. c #82CD03",
"k. c #84CD0C",
"l. c #83D402",
"z. c #85DA01",
"x. c #8ADB02",
"c. c #85D50B",
"v. c #89D50B",
"b. c #85D90C",
"n. c #8CDB0A",
"m. c #8AD605",
"M. c #91D80E",
"N. c #84CE12",
"B. c #84CC1B",
"V. c #8CCA18",
"C. c #84D513",
"Z. c #8AD512",
"A. c #86DA14",
"S. c #8BDA13",
"D. c #85D31A",
"F. c #8AD51B",
"G. c #85D91B",
"H. c #8BDC1C",
"J. c #92D919",
"K. c #93CF1F",
"L. c #8DE202",
"P. c #89E20A",
"I. c #93E40D",
"U. c #97EA04",
"Y. c #8DE31C",
"T. c #93E415",
"R. c #84CD23",
"E. c #82CC2B",
"W. c #87C626",
"Q. c #90CC28",
"!. c #84D323",
"~. c #8CD423",
"^. c #8CDD25",
"/. c #84D62B",
"(. c #8AD42D",
"). c #8CDB2B",
"_. c #84DA28",
"`. c #91DC23",
"'. c #95D927",
"]. c #83CC34",
"[. c #8BCD35",
"{. c #83CC3C",
"}. c #86C537",
"|. c #93CC34",
" X c #94CD3A",
".X c #95C53B",
"XX c #84D233",
"oX c #89D432",
"OX c #84D23B",
"+X c #8CD53C",
"@X c #89D936",
"#X c #93D539",
"$X c #A1DB38",
"%X c #8EE123",
"&X c #94E023",
"*X c #99E523",
"=X c #96E52B",
"-X c #9BF422",
";X c #95E536",
":X c #8FE230",
">X c #A4E52B",
",X c #A2ED31",
"<X c #88B656",
"1X c #93BB55",
"2X c #89B04E",
"3X c #8EB56A",
"4X c #83C743",
"5X c #85CD43",
"6X c #85CF4E",
"7X c #88C848",
"8X c #93C245",
"9X c #87D345",
"0X c #84D24B",
"qX c #8BDB49",
"wX c #8AD648",
"eX c #94DD41",
"rX c #92D94C",
"tX c #84CD51",
"yX c #89CD54",
"uX c #80CA5C",
"iX c #8BC354",
"pX c #93C752",
"aX c #9CCB54",
"sX c #89DD51",
"dX c #88D457",
"fX c #93DD5E",
"gX c #90E24A",
"hX c #97EA4A",
"jX c #96E352",
"kX c #8FE54F",
"lX c #88D767",
"zX c #99DA68",
"xX c #90D070",
"cX c #A4CC6A",
"vX c #A2EF6F",
"bX c #A4CE52",
/* pixels */
". @ .   ; 3XiXwX+XOXe.dXd.w.Y 7 f A w.lXa.y.lXp.lXq.5.&.Y.l.l. X# O     * O o X : 2XcXy.6.8.i.a.a.a.",
". .     X H 8 0 i a a K g U 9 9 > > j 8 p 9 s L i j L %.H.c.Z.#X$ O X + * * o X # D F 0 J K a a a d ",
"o o + % # N > h p s i p 9 i 0 h e y h p j i 9 9 7 P 9 oX(.^.).7X# X     * * + X - D < 7 s i i i a a ",
"X     % o 2 , S 7 9 9 f f i p 9 h > > 0 > 0 U p s E i 6.4.].}.7X- $ X X O = + # # 4 3 r f 7 9 C d 9 ",
"# $ # & 1 5 3 q V w w e 9 7 j 0 j 0 > Y 7 9 p i 7 7 T y.zXdX<XzX$ - $ - X % % - - ~ ~ m V 7 c v w 9 ",
"< < 4 2 ! ( / m c w v e p R q.yXq.uX0 9 p 0 L q.vXr.y.j 9 9 7 0 pXaXpX<XN 2 2 ! 3 ~ 2 c e w m , w d ",
"u u 8 , , , q 7 w f w 7 > 0 7.wX6.fX9 9 A 0 0 a.7.3.fXp p x F p W.W.+X4Xp 8 q f B V q q p l A r 0 0 ",
"0 p 0 A A w w d 9 d V l p j 2X5XwX6X7 z 0 9 j 0XjX_ {.j x > 7 h ~.j.F./.p 9 i 9 d 9 7 w p 7 0 0 0 p ",
"p 0 9 w w 9 i i s i 7 9 0 p yXu.r.t.p f 9 9 T 6.R.)._ W i p j i Z.z.c./.a a a a i i d 9 i 0 0 0 0 0 ",
"e w w w 9 i i i 9 9 w V l > W p j L 7 S e 7 7 OX,.).).&.%.oX@X/.l.z.b./.s i i i i i d i p i 0 0 0 0 ",
"n v m v v d i i g d q c 7 > p 7 9 9 9 7 7 x p rX,.O.=.F.G.D.=.C.b.b.G.XXi i i d i d w d 0 i 0 9 w w ",
"n n ! n w w i i 9 w c ^ / S j s s p j p p P 0 { gX).!.^.%XG.C.C.A.A.!.OXi p 9 9 d d v w i i w w q 9 ",
"n v n v w w i i d B n ! q 9 9 i 9 i p J 7 > T 6X4X}.].<.<.<.XX/.D.F.!.OX0 0 9 w w w v v d i B v w w ",
"f w b w w d 9 i w v c v d Y 0.sXsXsX;.9.qXjXq.j p j j p p s s s !.F.!.{.0 0 0 0 w w v v i i B B d i ",
"0 i 0 9 9 i i p d d n w i a 3.2.$.2.G.#. .oX7X0 7 8 8 0 0 0 f p R.Z.D.oXp t 0 0 0 9 w d i i B d d a ",
"p 0 0 9 9 i i i i 9 i a a a i.2.;X .#.-XA.D.4.k k 0 0 h p 0 0 h E.D.R.[.0 t 0 0 0 9 w w i i d d a i ",
"0 0 r b w 0 i p i a i K a U t.p.sX1.:X .c.H.R.x h j h h h p p j }.oX{.7.x 0 9 f e 7 w z 7 s s i i p ",
"0 0 v M v w i i a [ 9.kX2.;.L 9 s U ,.H.J.v.*XB.Q.[.(.(.(.XX9X5XR 0 8 h 9 z f > A w 7 9 i 0.0XwXwX6X",
"r w w w w 9 d i s lX8.1.$.kX9 s 7 i &.H.n.o.m.&XB.B.D.D.B.!.<.{.8 8 t l 8 v m Z q d 9 s L 0XgX1.<.>.",
"v b e 9 w d B B > d.e.5.9.hX9 h j L !.c.x.x.o.l.Z.Z.v.Z.C.C.!.OXj 7 8 7 q q w > v V 9 9 a 6.XX:.).oX",
"n v w w w v B B Y lXd.dXr.| P p 9 j +.X.l.U.x.M.b.b.m.x.z.m.A.!.L i p s p z S f 7 i 9 i P u.qXrX6.7.",
"n b w 9 d v v d 7 f 9 9 h R { E.+X,.,XI.z.L...m.m.b.m.z.z.z.@.A.2.5.qX[ J 7 7 9 0 d i 0 7 s 7 7 j j ",
"i d d w v v 9 i j p p 8 8 0 #X~.:X+.X.o.@.L.m.T.F.F.S.m.z.L.L.z.Y.=.2.5.L s j f w w m q b V e S 7 0 ",
"p p i i 9 9 0 i i 7 j 7 8 t [.k.Z.b.P.L.L.x.C.&.R.!.C.b.@.@.L.@.P.@._./.i i s 7 p q A > e q q 0 h x ",
"s s p i s p i s i s 0 0 t k ] M.n.j.x.o.x.O.).4.9X{.>.&Xk...T.l.z.X.Y.%.I 9 x p h p 9 p j p j i h h ",
"{.].[.4.9XOXXX).^.).{.4XpX{ =Xv.x.z.L.@.T.C.>.W 8 0 T E.H.l.I.l.L.l.Y.=X>.].rX4X4X5X{.+X9XXXOXOXoXoX",
"[.W.).B.D.D.C.A.l.@.#.F.=X~.F.o.c.J.I.o.I.D.1.p j 7 p :.D.c.S.I.x.j.o.k.R.(.|.>.R.`.O.c.x.l.@.l.c.Z.",
"8Xh.$XV.K.J.v.c.x.x.x.l.v.Z.B.~.D.F.S...S._.XXP P h P oX'.F.j.v.M.M.K.Q. X.X|.|.'.>Xj.z.L.L.L.z.z.x.",
"cX1XbXg.f.>XZ.v.m.m.L.z.L.*XW.wXE.' &Xc.Y.C.` j 9 i L *.B.H.k.K.W..X8X1X1X1X<XaX) $Xk.M.n.x.x.x.z.x.",
"o # $ ; < f.V.V.M.l.x.l.@...k 0 k k R.C.A.S.=X&.#X).&.&Xc.F.k.Q.- ; $ # # # X $ u h.V.'.j.j.n.b.b.b.",
"o X X # $ cX|.K.V.j.x.x.Y.(.j 8 8 8 #X~...X.b.Y.X.#.#.l.c.S.C. X$ #   X X % # # $ h.Q.>Xj.l.P.z.v.S.",
"    O X o cXh.V.~.N.H.*.!.6.p h h > rXoXG.=X=.-._.G.S.c.n.m.o.}.$ X O O * O X o $ 1X|.Q.k.S.Y.+././.",
". @     ; 3XpX+X#XoX1.qXa.0.Y 9 y x q.dX{.7.sXe.sX7.2.C.Y.l.c..X#     O * O o X : 2XcX{.<.2.i.8.i.i.",
". .     o H 8 0 i a i s s U 9 9 > 7 h 7 s 9 s j p s L %.H.c.v.eX# O   + * * o # X D F 0 J K K a i a ",
"o o + = # N > p p s i p 9 0 0 p r y h p j i 9 9 7 I 7 XX).).'.}.# X     * * + X $ D < 7 s i 9 a a i ",
"X   o % # 6 , S 7 9 9 f f p p 9 h > > h > 9 U p s E i 6.4.{.5.<X- $ X X * = X X $ 4 3 r p 9 9 C 9 9 ",
"# # # & 1 5 3 , V e q b 7 7 k 9 j t > S 7 9 p i 7 7 T u.zXdXy.zX- $ $ - X % # - - ~ ! ~ V 7 v v w 9 ",
"< < 4 2 ! ( / m v v w b 0 P q.dXt.p.p 9 9 p j t.vXr.y.j 9 0 8 0 pXaXpX<XG 2 2 m 3 ! c c r w m , e d ",
"u u 8 , 3 , q 7 w w w 7 > 0 q.wXu.fX9 0 S 9 i tX7.{ fXp 0 F x 0 W.W.#X4Xt 7 q b b V q q p h A r 0 0 ",
"p t 0 A A w d i 9 d f l 0 k 4XOX9X6X7 z 0 7 j 0XjX_ {.j j > 7 z ~.c.Z.E.p 0 i 9 d 9 7 e 0 7 0 e 0 i ",
"0 p 9 w w 9 i i s i 9 7 p 0 yXu.r.t.p f 0 9 I 7.,.@X$.E i p j p b.m.b./.a a i a i i d 9 i p 0 0 0 0 ",
"w w w w 9 i i i 7 9 w V l > W p s L 9 S e 7 9 OX!.&X).&.%.].+X/.b.z.b./.a i a i i i d i i 0 0 0 0 0 ",
"v n n n v d i i g d q q 7 > h > 9 9 9 7 7 j p rX,.*.C.F.^.C.=.#.c.b.D.XXp i d d i d B w i 0 9 e 9 w ",
"m n n n w d i i 9 w n ^ / S j j s p h s h P 0 { eX).!.^.%XD.-.G.c.G.D.OXp i 9 9 d d v d i i 9 w w w ",
"n n n v v w i i d B ! n q 7 9 i i a a j 7 > T yX4X{.4.<.<.,.XX/.D.G./.OX0 0 0 9 d w v B i 9 w v d w ",
"e w b w 9 d i i 9 v c v d Q [ sXsXkX;.9.rXrX} j p j j h p s s s !.D.!.{.p 0 e 9 w w v v d i B B d d ",
"0 i 0 9 9 i i i d B B w i a 3.2.$.2.-.=. .).9X0 7 8 0 0 0 0 0 p R.C.F.].0 t 0 0 0 9 w w i i B B d a ",
"p 0 0 i 9 0 i i i 9 d i i a i.2.;X .@.-XS.&.4.x x t 0 0 h 0 r j ].D.!.[.t t 0 0 0 9 w d i a d i i i ",
"0 0 0 0 9 9 9 i i a i i a i i.5X5.:.%XX.c.Z.B.F p p p i p p 0 p {.5X5Xy.h 9 0 f f 7 9 g > U d a 9 i ",
"8 0 0 e w w d 9 i p.s.lXp.[ L I a E D.b.m.v.>X>.5X6X6X0X0X0X6X6XP 0 0 P 7 j p 9 V w 9 d p 0.y.a.i.dX"
};
