/* XPM */
static char *_c722e65076b46decdf60f30abd4a47eQhpOGQuny6oGckY5[] = {
/* columns rows colors chars-per-pixel */
"47 49 227 2 ",
"   c #020202",
".  c #0A0202",
"X  c #010A05",
"o  c #0C0A05",
"O  c #01050B",
"+  c #0B0309",
"@  c #010A0C",
"#  c #0B0A0A",
"$  c #120403",
"%  c #110B0C",
"&  c #12130E",
"*  c #010512",
"=  c #060716",
"-  c #010B12",
";  c #080B13",
":  c #011215",
">  c #031715",
",  c #01121C",
"<  c #161012",
"1  c #121B23",
"2  c #04282F",
"3  c #11292A",
"4  c #18292C",
"5  c #062D32",
"6  c #0B2D34",
"7  c #1A2C37",
"8  c #053335",
"9  c #0B3636",
"0  c #03363D",
"q  c #0B353C",
"w  c #033B3D",
"e  c #0B3A3C",
"r  c #153435",
"t  c #1A3334",
"y  c #13353B",
"u  c #1C343B",
"i  c #133B3D",
"p  c #1C3B3E",
"a  c #213336",
"s  c #22333B",
"d  c #00413E",
"f  c #033543",
"g  c #0B3642",
"h  c #043C43",
"j  c #0B3B43",
"k  c #0B3548",
"l  c #023D4B",
"z  c #0A3C4A",
"x  c #123541",
"c  c #1C3541",
"v  c #143B43",
"b  c #1B3D43",
"n  c #143D4A",
"m  c #1D3D49",
"M  c #003350",
"N  c #043D54",
"B  c #0A3C52",
"V  c #033C5A",
"C  c #233B43",
"Z  c #253B49",
"A  c #034144",
"S  c #0B4245",
"D  c #074946",
"F  c #03424B",
"G  c #0A424B",
"H  c #044A4D",
"J  c #144245",
"K  c #1A4343",
"L  c #14414C",
"P  c #1D424B",
"I  c #1E4C4A",
"U  c #034153",
"Y  c #0B4352",
"T  c #02415B",
"R  c #1A4652",
"E  c #194854",
"W  c #24444C",
"Q  c #29494A",
"!  c #364848",
"~  c #294B58",
"^  c #344C57",
"/  c #2C5359",
"(  c #335354",
")  c #3A5559",
"_  c #3B4E61",
"`  c #395B65",
"'  c #2C6169",
"]  c #3A6168",
"[  c #434E5F",
"{  c #4A595A",
"}  c #475A64",
"|  c #496B77",
" . c #5E6C7A",
".. c #49757C",
"X. c #57747C",
"o. c #5A797B",
"O. c #656B7D",
"+. c #60757A",
"@. c #657779",
"#. c #757876",
"$. c #6F807B",
"%. c #467F80",
"&. c #4D7C82",
"*. c #527F8A",
"=. c #677B84",
"-. c #627D84",
";. c #787E8D",
":. c #4F8887",
">. c #5B8185",
",. c #55828C",
"<. c #5C8792",
"1. c #69878D",
"2. c #6E868F",
"3. c #63898C",
"4. c #75868B",
"5. c #6B8691",
"6. c #678C96",
"7. c #75889A",
"8. c #6F9299",
"9. c #77A5AC",
"0. c #848888",
"q. c #86999B",
"w. c #929698",
"e. c #A69D9E",
"r. c #B19E9F",
"t. c #A9A49F",
"y. c #B3A99F",
"u. c #889DA5",
"i. c #949BA6",
"p. c #87A5A9",
"a. c #8EA5AD",
"s. c #8DACAE",
"d. c #9DA4A5",
"f. c #96A7A9",
"g. c #9CA6AB",
"h. c #95ABAD",
"j. c #9CABAC",
"k. c #9CB3AC",
"l. c #9FB8AF",
"z. c #87ADB1",
"x. c #8AABB2",
"c. c #9CAEB3",
"v. c #99ABB5",
"b. c #8BB6B9",
"n. c #95B3B5",
"m. c #9CB3B4",
"M. c #94B4BA",
"N. c #9BB5BB",
"B. c #95BBBE",
"V. c #9DBABC",
"C. c #A3A3A3",
"Z. c #A4A3A2",
"A. c #ACA5A5",
"S. c #A5ABA5",
"D. c #ABA9A5",
"F. c #A4A7AA",
"G. c #AAA7AA",
"H. c #A5ACAD",
"J. c #ACACAC",
"K. c #B1AAA4",
"L. c #B6A9A8",
"P. c #B2ACAC",
"I. c #A2B6AC",
"U. c #ABB1AD",
"Y. c #B1B1AC",
"T. c #A8A7B1",
"R. c #A4ADB2",
"E. c #ABADB2",
"W. c #A5ABBA",
"Q. c #A8ADBB",
"!. c #B3AEB3",
"~. c #B9ADB0",
"^. c #A4B2B4",
"/. c #ABB2B3",
"(. c #A4B4BB",
"). c #ABB5BA",
"_. c #A4B8BE",
"`. c #ACB9BC",
"'. c #B3B3B3",
"]. c #B2B5BA",
"[. c #B6B9B8",
"{. c #BDBCBC",
"}. c #C3BCBE",
"|. c #B0C0B8",
" X c #98B5C0",
".X c #94BBC2",
"XX c #9CBDC1",
"oX c #A6B5C3",
"OX c #A2BDC5",
"+X c #A7BEC8",
"@X c #B9BBC3",
"#X c #C1BEC3",
"$X c #9AC1C6",
"%X c #9EC4D0",
"&X c #A5C8C9",
"*X c #B8C4C5",
"=X c #B5CCD4",
"-X c #C5C5CA",
";X c #CACACA",
":X c #C3CCD2",
">X c #C6D6D8",
",X c #D5D6D6",
"<X c #DCDEDA",
"1X c #E9D2D1",
"2X c #E6D9D9",
"3X c #DAE2DF",
"4X c #E3E4DD",
"5X c #D8DAE1",
"6X c #D6E6E5",
"7X c #DDFCF7",
"8X c #E6E7E5",
"9X c #EDEEED",
"0X c #F3EFEF",
"qX c #EBF4EF",
"wX c #E4F5F7",
"eX c #EBF1F0",
"rX c #ECF6FC",
"tX c #E3FEFF",
"yX c #ECFDFE",
"uX c #F4F5F4",
"iX c #F4FAF6",
"pX c #FCFCF5",
"aX c #F3F6FA",
"sX c #F4FEFD",
"dX c #FBFBFB",
"fX c #FCFDFD",
"gX c #FFFFFE",
/* pixels */
"                                              C.dXgXC.                                  O     ",
"                                              C.dXgXC.                                        ",
"                                              C.dXgXC.                                    O   ",
"                                              C.dXgXC.                                O       ",
"                                              C.dXgXe.                                        ",
"                  . . . .       .       X     t.pXpXr.$ .         X O     . + . +   O   O   . ",
"          .   .   . o + .     X . .     @ O X d.pXpXe.. % o   X X         O + + . + O + O     ",
"  # .   # +     O         O             * O O g.dXgXZ.o             +   + + + + + O   O O     ",
". . . + . O O   ; O - O X O     X     O = * = g.dXsXd.X   X     . . . . .   . O O = O @ @ X X ",
"$ . .   # # 1 ; - - , - : ; X         O , , , g.aXrXp.> > ;     + .     o < : , * - - - @ -   ",
". o   < w.).f.) s y v v K 3 X   o     @ 7 u C ).sXsXB.r t 4 O O O + O # #.'.f.%.b 6 i K p t X ",
"      X g.^.m.Q i y e j e t X   X X O O C s s _.sXsXB.i d 7 @ O O O     0.^.V.$.j J J i p s # ",
"      X /.l.m.( i d S e i 4 @ X &   o X s s a /.sXyXB.i C y > - @ - @ - 2.m.M.%.w D J i r a @ ",
"      X 6X6X6Xq.4.4.p.$X|._.H.S.t.#.#.#.4.4.4.:XiXyXXXi p p 5 5 5 5 5 2 ` ` ] &.6.6.3.1.2.4.# ",
"        iXsXyX*X^.h.>XyXtXsXsXgXiXU.U.U.j.^.^.3XuXsXM.q 8 e w S S h S j L j m X..XN.V.n.c.).  ",
".   .   gXaXaX*X^./.>XsXyXyXsXdXpXD.D.H.j.^.I.3XqXsXXXv q j S A F A F A z f x  .v.oXc.(.).C.# ",
"  O @ O ) c W ~ W C =.`.].-XgXdXpXsXiXsX'.J.J.<XdXdX,Xh.z.9.H H H F l h A S S L L L R R m y - ",
"    O - C b L e e i @.H.!.#XgXgXsXgXdXfX!.P.J.3XiXuX2XJ.V.z.A A F l l h A D A j S G A S v y : ",
"X   . ; 4 u b v W r +.U.A.}.gXdXsXdXdXdX'.K.A.6XsXfX2XL.^.s.h F N N B N U U F J e e e e 9 3 O ",
"  .   . { } ) ~ ( ! #.P.A.}.gXdXdXsXdXdX!.P.'.,XqX8X1XL.J.c.i j z B N V V T l J / / / ( ( { X ",
". .   # rXyXtX&XV.k.k.D.~.}.gXdXsXdXdXfXU.!.J./.^.H.P.J.H.m.x v z B B V T T z ..B.b.XXn.N.j.; ",
"o       sX7X7X.XB.k.I.J.P.}.gXgXsXdXdXfXJ.P.H.F.g.(.(.oXm.x.x n z k B B V V l ..$X9..Xx.n.m.  ",
"X O @ - a.p.z.,.3.&.q.R.E.#XgXaXdX,X3X3X'.G.E.w.@.1.*.*.*.<.| | ..h L h G f Y ' :.,.<.<.-.-.- ",
"  X @ * Z x n z L r X.W.E.@XgXdXdX/.t.S.A.[.).} C v l l z n %X.X$X0 f h F z G B f k j g y 7 O ",
"  @ O * 7 x k 0 q b o.H.].#XfXdXfXS.U.Y.J.G.).} C q F F E v M.M.B.8 j S h h l f Y L j v b b : ",
"#   O @ C 6 x i i r @.H.J.#XfXdXdXU.Y.A.[.E.R.} Z j H S 8 ^ m.(.n.b j h l N Y f j v J p u !   ",
"  o   @ yXyXtX&Xn.k./.J.}.#XdXdXdXS.C.A.0XfXdX=X Xb.:.d 4 ! i.E.m.y j l T M z %.b..Xz.s.m.f.@ ",
"$ $ . . sXsXyXOXV.m.'.A.L.@XfXfXgXU.P.J.dXfXdX:X(.N.3.i e C E.P.(.y N V V U z X.B.x._.(.^.].  ",
". % + O eXsXyX&XN.k.R.A.~.{.fXgXgXJ.J.J.iXgXgX;X/.H.2.v z W W.K.(.g N V V U S o.XXV.(.c._.`.@ ",
"X   X @ x q g h e q +.^.H.{.gXfXgXJ.J.J.aXgXgX;XP.H.5.j h P W.P.^.e N V V F h d A S j v y b - ",
"  X   , x n z h 0 J o.m.].@XfXgXgXJ.J.J.dXdXgX;X'.H.2.z l P R.J.m.e N V B F A A h H w w q 6 , ",
"  @ - O c g g j J r +.).J.`.gXgXgXJ.J.S.uXgXgX;XE.H.2.j h P R.J.m.e U N N A d F A k h n n Z = ",
". $ + + Q.oXOX7.8.;.w.!.~.{.gXgXgXJ.J.J.dXdXfX;XP.H.5.j h W ^.A.m.w F N N h e ` 8.6.7.7.;.;.= ",
"$ $ . . gXyXsX+Xa.).!.K.~.}.fXfXgXJ.J.J.aXuXfX;XF.E.4.v h b ^.Y.l.9 l U Y S e  .oXi.oXW.oX@X* ",
".   . ; wXyXtX&Xn.h.I.U.K.}.gXfXgXJ.J.J.iXdXdX;XJ.G.;.y J W d.y.l.e F N B A i X.oXN.oXv.).W.* ",
"    X O Q W ~ J I Q @.S.J.{.fXfXgXJ.J.J.dXgXgXuXiXiX,Xp.s.p.[.K.k.8 U N N A e i R b W Z p Q @ ",
"X X @ : 6 n k 0 S q o.j.R.{.gXgXgXJ.J.J.uXgXgXdXfXfX2X(.V.j.J.y.k.9 U N N l A A S S h k J 6 , ",
"O X O = Z n k k n x -.R.].{.gXdXgXJ.J.'.9XgXdXdXdXpX2X/.h.^.D.y.l.e N N N F F h G Y z n m Z = ",
"  . ; O [ _ ] ~ ^ ^ ;.T.!.{.gXdXgXJ.J.'.8X9X9X9X0X0X2XJ.d.[.D.K.k.9 l l N F G E E ~ / _ Z [ * ",
".       dXdXdX@XE.A.K.A.P.{.dXgXdX'.J.J.!.J.J.J.G.A.D.y.Y.D.Y.^.I.r i h A F j O.).Q.W.E.Q.).O ",
"      @ rXsXaX+X@XR.].[.[.#XdXfXuX'.E.J.J.'./.J.J.'.J.J.J.H.^._.OXv g G F l h | XX XOX_._.+XX ",
"  O @ - a.x.x.3.-.-.f.:X-X,XdXfXgX;X;X;X'.J.J.J.J.J.J.T.^.k.=.>.>.w F F F l A ' :.<.>.>.$.o.@ ",
"O = - * m g J R x m u.sXdXdXdXdXgXdXdXdX[.J.J.'.J.F.E.R.).a.p e g 0 Y A l N F D w D 8 e q t O ",
"+ O = - q j j A k y u.sXrXfXdXdXgXgXdXgX[.J.P.J.A.!.!.E.(.a.t d h h G z l k h A w D d K i r @ ",
"+ + O @ r d p e i t u.sXdXdX0XgXgXdXgXdX'.J.'.J.U.'.G.E.].q.Q i K e e e q y b v v K i p t a X ",
"$ < +   wX7X7X|.m.^.^.F.T.0.O     #   #             . . X X X X X > > @ *XsXrX=Xm.c.j.W./.).; ",
"$ .     dXiXdX|.`.S.'.P.A.0.  o                     . .     X X X X X X -X9XdX5X].E.E.E.T.J.O ",
"  o . o 4XpXiX|.S.t.e.A.{.#.      #     #         .               # # o !.gXdX,X!.!.G.P.'.C.< ",
".   o     . . X   o . o     #   #                   X   @ .   . o         X   # . #   . . %   "
};
